<?xml version="1.0" encoding="utf-8"?>
<svg xmlns="http://www.w3.org/2000/svg" xmlns:xlink="http://www.w3.org/1999/xlink" width="600" height="400" viewBox="0 0 2400 1600">
<defs>
  <clipPath id="clip350">
    <rect x="0" y="0" width="2400" height="1600"/>
  </clipPath>
</defs>
<path clip-path="url(#clip350)" d="M0 1600 L2400 1600 L2400 0 L0 0  Z" fill="#ffffff" fill-rule="evenodd" fill-opacity="1"/>
<defs>
  <clipPath id="clip351">
    <rect x="480" y="0" width="1681" height="1600"/>
  </clipPath>
</defs>
<path clip-path="url(#clip350)" d="M249.542 1423.18 L2352.76 1423.18 L2352.76 123.472 L249.542 123.472  Z" fill="#ffffff" fill-rule="evenodd" fill-opacity="1"/>
<defs>
  <clipPath id="clip352">
    <rect x="249" y="123" width="2104" height="1301"/>
  </clipPath>
</defs>
<polyline clip-path="url(#clip352)" style="stroke:#000000; stroke-linecap:round; stroke-linejoin:round; stroke-width:2; stroke-opacity:0.1; fill:none" points="289.025,1423.18 289.025,123.472 "/>
<polyline clip-path="url(#clip352)" style="stroke:#000000; stroke-linecap:round; stroke-linejoin:round; stroke-width:2; stroke-opacity:0.1; fill:none" points="790.076,1423.18 790.076,123.472 "/>
<polyline clip-path="url(#clip352)" style="stroke:#000000; stroke-linecap:round; stroke-linejoin:round; stroke-width:2; stroke-opacity:0.1; fill:none" points="1291.13,1423.18 1291.13,123.472 "/>
<polyline clip-path="url(#clip352)" style="stroke:#000000; stroke-linecap:round; stroke-linejoin:round; stroke-width:2; stroke-opacity:0.1; fill:none" points="1792.18,1423.18 1792.18,123.472 "/>
<polyline clip-path="url(#clip352)" style="stroke:#000000; stroke-linecap:round; stroke-linejoin:round; stroke-width:2; stroke-opacity:0.1; fill:none" points="2293.23,1423.18 2293.23,123.472 "/>
<polyline clip-path="url(#clip352)" style="stroke:#000000; stroke-linecap:round; stroke-linejoin:round; stroke-width:2; stroke-opacity:0.1; fill:none" points="249.542,1386.4 2352.76,1386.4 "/>
<polyline clip-path="url(#clip352)" style="stroke:#000000; stroke-linecap:round; stroke-linejoin:round; stroke-width:2; stroke-opacity:0.1; fill:none" points="249.542,1079.86 2352.76,1079.86 "/>
<polyline clip-path="url(#clip352)" style="stroke:#000000; stroke-linecap:round; stroke-linejoin:round; stroke-width:2; stroke-opacity:0.1; fill:none" points="249.542,773.326 2352.76,773.326 "/>
<polyline clip-path="url(#clip352)" style="stroke:#000000; stroke-linecap:round; stroke-linejoin:round; stroke-width:2; stroke-opacity:0.1; fill:none" points="249.542,466.791 2352.76,466.791 "/>
<polyline clip-path="url(#clip352)" style="stroke:#000000; stroke-linecap:round; stroke-linejoin:round; stroke-width:2; stroke-opacity:0.1; fill:none" points="249.542,160.256 2352.76,160.256 "/>
<polyline clip-path="url(#clip350)" style="stroke:#000000; stroke-linecap:round; stroke-linejoin:round; stroke-width:4; stroke-opacity:1; fill:none" points="249.542,1423.18 2352.76,1423.18 "/>
<polyline clip-path="url(#clip350)" style="stroke:#000000; stroke-linecap:round; stroke-linejoin:round; stroke-width:4; stroke-opacity:1; fill:none" points="289.025,1423.18 289.025,1404.28 "/>
<polyline clip-path="url(#clip350)" style="stroke:#000000; stroke-linecap:round; stroke-linejoin:round; stroke-width:4; stroke-opacity:1; fill:none" points="790.076,1423.18 790.076,1404.28 "/>
<polyline clip-path="url(#clip350)" style="stroke:#000000; stroke-linecap:round; stroke-linejoin:round; stroke-width:4; stroke-opacity:1; fill:none" points="1291.13,1423.18 1291.13,1404.28 "/>
<polyline clip-path="url(#clip350)" style="stroke:#000000; stroke-linecap:round; stroke-linejoin:round; stroke-width:4; stroke-opacity:1; fill:none" points="1792.18,1423.18 1792.18,1404.28 "/>
<polyline clip-path="url(#clip350)" style="stroke:#000000; stroke-linecap:round; stroke-linejoin:round; stroke-width:4; stroke-opacity:1; fill:none" points="2293.23,1423.18 2293.23,1404.28 "/>
<path clip-path="url(#clip350)" d="M289.025 1454.1 Q285.414 1454.1 283.585 1457.66 Q281.78 1461.2 281.78 1468.33 Q281.78 1475.44 283.585 1479.01 Q285.414 1482.55 289.025 1482.55 Q292.659 1482.55 294.465 1479.01 Q296.293 1475.44 296.293 1468.33 Q296.293 1461.2 294.465 1457.66 Q292.659 1454.1 289.025 1454.1 M289.025 1450.39 Q294.835 1450.39 297.891 1455 Q300.969 1459.58 300.969 1468.33 Q300.969 1477.06 297.891 1481.67 Q294.835 1486.25 289.025 1486.25 Q283.215 1486.25 280.136 1481.67 Q277.081 1477.06 277.081 1468.33 Q277.081 1459.58 280.136 1455 Q283.215 1450.39 289.025 1450.39 Z" fill="#000000" fill-rule="nonzero" fill-opacity="1" /><path clip-path="url(#clip350)" d="M769.347 1481.64 L785.667 1481.64 L785.667 1485.58 L763.722 1485.58 L763.722 1481.64 Q766.384 1478.89 770.968 1474.26 Q775.574 1469.61 776.755 1468.27 Q779 1465.74 779.88 1464.01 Q780.782 1462.25 780.782 1460.56 Q780.782 1457.8 778.838 1456.07 Q776.917 1454.33 773.815 1454.33 Q771.616 1454.33 769.162 1455.09 Q766.732 1455.86 763.954 1457.41 L763.954 1452.69 Q766.778 1451.55 769.232 1450.97 Q771.685 1450.39 773.722 1450.39 Q779.093 1450.39 782.287 1453.08 Q785.482 1455.77 785.482 1460.26 Q785.482 1462.39 784.671 1464.31 Q783.884 1466.2 781.778 1468.8 Q781.199 1469.47 778.097 1472.69 Q774.995 1475.88 769.347 1481.64 Z" fill="#000000" fill-rule="nonzero" fill-opacity="1" /><path clip-path="url(#clip350)" d="M795.528 1451.02 L813.884 1451.02 L813.884 1454.96 L799.81 1454.96 L799.81 1463.43 Q800.829 1463.08 801.847 1462.92 Q802.866 1462.73 803.884 1462.73 Q809.671 1462.73 813.051 1465.9 Q816.43 1469.08 816.43 1474.49 Q816.43 1480.07 812.958 1483.17 Q809.486 1486.25 803.167 1486.25 Q800.991 1486.25 798.722 1485.88 Q796.477 1485.51 794.069 1484.77 L794.069 1480.07 Q796.153 1481.2 798.375 1481.76 Q800.597 1482.32 803.074 1482.32 Q807.079 1482.32 809.417 1480.21 Q811.755 1478.1 811.755 1474.49 Q811.755 1470.88 809.417 1468.77 Q807.079 1466.67 803.074 1466.67 Q801.199 1466.67 799.324 1467.08 Q797.472 1467.5 795.528 1468.38 L795.528 1451.02 Z" fill="#000000" fill-rule="nonzero" fill-opacity="1" /><path clip-path="url(#clip350)" d="M1265.83 1451.02 L1284.18 1451.02 L1284.18 1454.96 L1270.11 1454.96 L1270.11 1463.43 Q1271.13 1463.08 1272.15 1462.92 Q1273.17 1462.73 1274.18 1462.73 Q1279.97 1462.73 1283.35 1465.9 Q1286.73 1469.08 1286.73 1474.49 Q1286.73 1480.07 1283.26 1483.17 Q1279.79 1486.25 1273.47 1486.25 Q1271.29 1486.25 1269.02 1485.88 Q1266.78 1485.51 1264.37 1484.77 L1264.37 1480.07 Q1266.45 1481.2 1268.67 1481.76 Q1270.9 1482.32 1273.37 1482.32 Q1277.38 1482.32 1279.72 1480.21 Q1282.05 1478.1 1282.05 1474.49 Q1282.05 1470.88 1279.72 1468.77 Q1277.38 1466.67 1273.37 1466.67 Q1271.5 1466.67 1269.62 1467.08 Q1267.77 1467.5 1265.83 1468.38 L1265.83 1451.02 Z" fill="#000000" fill-rule="nonzero" fill-opacity="1" /><path clip-path="url(#clip350)" d="M1305.94 1454.1 Q1302.33 1454.1 1300.5 1457.66 Q1298.7 1461.2 1298.7 1468.33 Q1298.7 1475.44 1300.5 1479.01 Q1302.33 1482.55 1305.94 1482.55 Q1309.58 1482.55 1311.38 1479.01 Q1313.21 1475.44 1313.21 1468.33 Q1313.21 1461.2 1311.38 1457.66 Q1309.58 1454.1 1305.94 1454.1 M1305.94 1450.39 Q1311.75 1450.39 1314.81 1455 Q1317.89 1459.58 1317.89 1468.33 Q1317.89 1477.06 1314.81 1481.67 Q1311.75 1486.25 1305.94 1486.25 Q1300.13 1486.25 1297.05 1481.67 Q1294 1477.06 1294 1468.33 Q1294 1459.58 1297.05 1455 Q1300.13 1450.39 1305.94 1450.39 Z" fill="#000000" fill-rule="nonzero" fill-opacity="1" /><path clip-path="url(#clip350)" d="M1766.03 1451.02 L1788.26 1451.02 L1788.26 1453.01 L1775.71 1485.58 L1770.83 1485.58 L1782.63 1454.96 L1766.03 1454.96 L1766.03 1451.02 Z" fill="#000000" fill-rule="nonzero" fill-opacity="1" /><path clip-path="url(#clip350)" d="M1797.42 1451.02 L1815.78 1451.02 L1815.78 1454.96 L1801.7 1454.96 L1801.7 1463.43 Q1802.72 1463.08 1803.74 1462.92 Q1804.76 1462.73 1805.78 1462.73 Q1811.57 1462.73 1814.95 1465.9 Q1818.33 1469.08 1818.33 1474.49 Q1818.33 1480.07 1814.85 1483.17 Q1811.38 1486.25 1805.06 1486.25 Q1802.89 1486.25 1800.62 1485.88 Q1798.37 1485.51 1795.96 1484.77 L1795.96 1480.07 Q1798.05 1481.2 1800.27 1481.76 Q1802.49 1482.32 1804.97 1482.32 Q1808.97 1482.32 1811.31 1480.21 Q1813.65 1478.1 1813.65 1474.49 Q1813.65 1470.88 1811.31 1468.77 Q1808.97 1466.67 1804.97 1466.67 Q1803.09 1466.67 1801.22 1467.08 Q1799.37 1467.5 1797.42 1468.38 L1797.42 1451.02 Z" fill="#000000" fill-rule="nonzero" fill-opacity="1" /><path clip-path="url(#clip350)" d="M2252.84 1481.64 L2260.48 1481.64 L2260.48 1455.28 L2252.17 1456.95 L2252.17 1452.69 L2260.43 1451.02 L2265.11 1451.02 L2265.11 1481.64 L2272.74 1481.64 L2272.74 1485.58 L2252.84 1485.58 L2252.84 1481.64 Z" fill="#000000" fill-rule="nonzero" fill-opacity="1" /><path clip-path="url(#clip350)" d="M2292.19 1454.1 Q2288.58 1454.1 2286.75 1457.66 Q2284.94 1461.2 2284.94 1468.33 Q2284.94 1475.44 2286.75 1479.01 Q2288.58 1482.55 2292.19 1482.55 Q2295.82 1482.55 2297.63 1479.01 Q2299.46 1475.44 2299.46 1468.33 Q2299.46 1461.2 2297.63 1457.66 Q2295.82 1454.1 2292.19 1454.1 M2292.19 1450.39 Q2298 1450.39 2301.06 1455 Q2304.13 1459.58 2304.13 1468.33 Q2304.13 1477.06 2301.06 1481.67 Q2298 1486.25 2292.19 1486.25 Q2286.38 1486.25 2283.3 1481.67 Q2280.24 1477.06 2280.24 1468.33 Q2280.24 1459.58 2283.3 1455 Q2286.38 1450.39 2292.19 1450.39 Z" fill="#000000" fill-rule="nonzero" fill-opacity="1" /><path clip-path="url(#clip350)" d="M2322.35 1454.1 Q2318.74 1454.1 2316.91 1457.66 Q2315.11 1461.2 2315.11 1468.33 Q2315.11 1475.44 2316.91 1479.01 Q2318.74 1482.55 2322.35 1482.55 Q2325.99 1482.55 2327.79 1479.01 Q2329.62 1475.44 2329.62 1468.33 Q2329.62 1461.2 2327.79 1457.66 Q2325.99 1454.1 2322.35 1454.1 M2322.35 1450.39 Q2328.16 1450.39 2331.22 1455 Q2334.3 1459.58 2334.3 1468.33 Q2334.3 1477.06 2331.22 1481.67 Q2328.16 1486.25 2322.35 1486.25 Q2316.54 1486.25 2313.46 1481.67 Q2310.41 1477.06 2310.41 1468.33 Q2310.41 1459.58 2313.46 1455 Q2316.54 1450.39 2322.35 1450.39 Z" fill="#000000" fill-rule="nonzero" fill-opacity="1" /><path clip-path="url(#clip350)" d="M979.729 1524.18 L979.729 1530.96 Q976.482 1527.94 972.79 1526.44 Q969.13 1524.95 964.992 1524.95 Q956.844 1524.95 952.515 1529.95 Q948.186 1534.91 948.186 1544.33 Q948.186 1553.72 952.515 1558.72 Q956.844 1563.68 964.992 1563.68 Q969.13 1563.68 972.79 1562.19 Q976.482 1560.69 979.729 1557.67 L979.729 1564.38 Q976.355 1566.68 972.567 1567.82 Q968.811 1568.97 964.61 1568.97 Q953.82 1568.97 947.614 1562.38 Q941.407 1555.76 941.407 1544.33 Q941.407 1532.87 947.614 1526.28 Q953.82 1519.66 964.61 1519.66 Q968.875 1519.66 972.631 1520.81 Q976.418 1521.92 979.729 1524.18 Z" fill="#000000" fill-rule="nonzero" fill-opacity="1" /><path clip-path="url(#clip350)" d="M1003.22 1536.5 Q998.507 1536.5 995.77 1540.19 Q993.033 1543.85 993.033 1550.25 Q993.033 1556.65 995.738 1560.34 Q998.476 1564 1003.22 1564 Q1007.9 1564 1010.63 1560.31 Q1013.37 1556.62 1013.37 1550.25 Q1013.37 1543.92 1010.63 1540.23 Q1007.9 1536.5 1003.22 1536.5 M1003.22 1531.54 Q1010.86 1531.54 1015.22 1536.5 Q1019.58 1541.47 1019.58 1550.25 Q1019.58 1559 1015.22 1564 Q1010.86 1568.97 1003.22 1568.97 Q995.547 1568.97 991.187 1564 Q986.858 1559 986.858 1550.25 Q986.858 1541.47 991.187 1536.5 Q995.547 1531.54 1003.22 1531.54 Z" fill="#000000" fill-rule="nonzero" fill-opacity="1" /><path clip-path="url(#clip350)" d="M1058.92 1546.53 L1058.92 1568.04 L1053.06 1568.04 L1053.06 1546.72 Q1053.06 1541.66 1051.09 1539.14 Q1049.11 1536.63 1045.17 1536.63 Q1040.43 1536.63 1037.69 1539.65 Q1034.95 1542.68 1034.95 1547.9 L1034.95 1568.04 L1029.06 1568.04 L1029.06 1532.4 L1034.95 1532.4 L1034.95 1537.93 Q1037.05 1534.72 1039.88 1533.13 Q1042.75 1531.54 1046.47 1531.54 Q1052.62 1531.54 1055.77 1535.36 Q1058.92 1539.14 1058.92 1546.53 Z" fill="#000000" fill-rule="nonzero" fill-opacity="1" /><path clip-path="url(#clip350)" d="M1094.06 1537.81 L1094.06 1518.52 L1099.91 1518.52 L1099.91 1568.04 L1094.06 1568.04 L1094.06 1562.7 Q1092.21 1565.88 1089.38 1567.44 Q1086.58 1568.97 1082.63 1568.97 Q1076.17 1568.97 1072.09 1563.81 Q1068.05 1558.65 1068.05 1550.25 Q1068.05 1541.85 1072.09 1536.69 Q1076.17 1531.54 1082.63 1531.54 Q1086.58 1531.54 1089.38 1533.1 Q1092.21 1534.62 1094.06 1537.81 M1074.1 1550.25 Q1074.1 1556.71 1076.74 1560.4 Q1079.42 1564.07 1084.06 1564.07 Q1088.71 1564.07 1091.38 1560.4 Q1094.06 1556.71 1094.06 1550.25 Q1094.06 1543.79 1091.38 1540.13 Q1088.71 1536.44 1084.06 1536.44 Q1079.42 1536.44 1076.74 1540.13 Q1074.1 1543.79 1074.1 1550.25 Z" fill="#000000" fill-rule="nonzero" fill-opacity="1" /><path clip-path="url(#clip350)" d="M1111.98 1532.4 L1117.83 1532.4 L1117.83 1568.04 L1111.98 1568.04 L1111.98 1532.4 M1111.98 1518.52 L1117.83 1518.52 L1117.83 1525.93 L1111.98 1525.93 L1111.98 1518.52 Z" fill="#000000" fill-rule="nonzero" fill-opacity="1" /><path clip-path="url(#clip350)" d="M1135.88 1522.27 L1135.88 1532.4 L1147.94 1532.4 L1147.94 1536.95 L1135.88 1536.95 L1135.88 1556.3 Q1135.88 1560.66 1137.06 1561.9 Q1138.27 1563.14 1141.93 1563.14 L1147.94 1563.14 L1147.94 1568.04 L1141.93 1568.04 Q1135.15 1568.04 1132.57 1565.53 Q1129.99 1562.98 1129.99 1556.3 L1129.99 1536.95 L1125.69 1536.95 L1125.69 1532.4 L1129.99 1532.4 L1129.99 1522.27 L1135.88 1522.27 Z" fill="#000000" fill-rule="nonzero" fill-opacity="1" /><path clip-path="url(#clip350)" d="M1155.64 1532.4 L1161.5 1532.4 L1161.5 1568.04 L1155.64 1568.04 L1155.64 1532.4 M1155.64 1518.52 L1161.5 1518.52 L1161.5 1525.93 L1155.64 1525.93 L1155.64 1518.52 Z" fill="#000000" fill-rule="nonzero" fill-opacity="1" /><path clip-path="url(#clip350)" d="M1187.57 1536.5 Q1182.86 1536.5 1180.12 1540.19 Q1177.38 1543.85 1177.38 1550.25 Q1177.38 1556.65 1180.09 1560.34 Q1182.83 1564 1187.57 1564 Q1192.25 1564 1194.98 1560.31 Q1197.72 1556.62 1197.72 1550.25 Q1197.72 1543.92 1194.98 1540.23 Q1192.25 1536.5 1187.57 1536.5 M1187.57 1531.54 Q1195.21 1531.54 1199.57 1536.5 Q1203.93 1541.47 1203.93 1550.25 Q1203.93 1559 1199.57 1564 Q1195.21 1568.97 1187.57 1568.97 Q1179.9 1568.97 1175.54 1564 Q1171.21 1559 1171.21 1550.25 Q1171.21 1541.47 1175.54 1536.5 Q1179.9 1531.54 1187.57 1531.54 Z" fill="#000000" fill-rule="nonzero" fill-opacity="1" /><path clip-path="url(#clip350)" d="M1243.27 1546.53 L1243.27 1568.04 L1237.41 1568.04 L1237.41 1546.72 Q1237.41 1541.66 1235.44 1539.14 Q1233.47 1536.63 1229.52 1536.63 Q1224.78 1536.63 1222.04 1539.65 Q1219.3 1542.68 1219.3 1547.9 L1219.3 1568.04 L1213.41 1568.04 L1213.41 1532.4 L1219.3 1532.4 L1219.3 1537.93 Q1221.4 1534.72 1224.24 1533.13 Q1227.1 1531.54 1230.82 1531.54 Q1236.97 1531.54 1240.12 1535.36 Q1243.27 1539.14 1243.27 1546.53 Z" fill="#000000" fill-rule="nonzero" fill-opacity="1" /><path clip-path="url(#clip350)" d="M1305.3 1546.53 L1305.3 1568.04 L1299.45 1568.04 L1299.45 1546.72 Q1299.45 1541.66 1297.47 1539.14 Q1295.5 1536.63 1291.55 1536.63 Q1286.81 1536.63 1284.07 1539.65 Q1281.34 1542.68 1281.34 1547.9 L1281.34 1568.04 L1275.45 1568.04 L1275.45 1532.4 L1281.34 1532.4 L1281.34 1537.93 Q1283.44 1534.72 1286.27 1533.13 Q1289.13 1531.54 1292.86 1531.54 Q1299 1531.54 1302.15 1535.36 Q1305.3 1539.14 1305.3 1546.53 Z" fill="#000000" fill-rule="nonzero" fill-opacity="1" /><path clip-path="url(#clip350)" d="M1316.38 1553.98 L1316.38 1532.4 L1322.24 1532.4 L1322.24 1553.75 Q1322.24 1558.81 1324.21 1561.36 Q1326.18 1563.87 1330.13 1563.87 Q1334.87 1563.87 1337.61 1560.85 Q1340.38 1557.83 1340.38 1552.61 L1340.38 1532.4 L1346.23 1532.4 L1346.23 1568.04 L1340.38 1568.04 L1340.38 1562.57 Q1338.25 1565.82 1335.41 1567.41 Q1332.61 1568.97 1328.89 1568.97 Q1322.74 1568.97 1319.56 1565.15 Q1316.38 1561.33 1316.38 1553.98 M1331.12 1531.54 L1331.12 1531.54 Z" fill="#000000" fill-rule="nonzero" fill-opacity="1" /><path clip-path="url(#clip350)" d="M1386.05 1539.24 Q1388.25 1535.29 1391.3 1533.41 Q1394.36 1531.54 1398.5 1531.54 Q1404.07 1531.54 1407.09 1535.45 Q1410.11 1539.33 1410.11 1546.53 L1410.11 1568.04 L1404.23 1568.04 L1404.23 1546.72 Q1404.23 1541.59 1402.41 1539.11 Q1400.6 1536.63 1396.87 1536.63 Q1392.32 1536.63 1389.68 1539.65 Q1387.04 1542.68 1387.04 1547.9 L1387.04 1568.04 L1381.15 1568.04 L1381.15 1546.72 Q1381.15 1541.56 1379.34 1539.11 Q1377.52 1536.63 1373.73 1536.63 Q1369.25 1536.63 1366.6 1539.68 Q1363.96 1542.71 1363.96 1547.9 L1363.96 1568.04 L1358.07 1568.04 L1358.07 1532.4 L1363.96 1532.4 L1363.96 1537.93 Q1365.97 1534.66 1368.77 1533.1 Q1371.57 1531.54 1375.42 1531.54 Q1379.3 1531.54 1382.01 1533.51 Q1384.75 1535.48 1386.05 1539.24 Z" fill="#000000" fill-rule="nonzero" fill-opacity="1" /><path clip-path="url(#clip350)" d="M1447.39 1550.25 Q1447.39 1543.79 1444.71 1540.13 Q1442.07 1536.44 1437.42 1536.44 Q1432.78 1536.44 1430.1 1540.13 Q1427.46 1543.79 1427.46 1550.25 Q1427.46 1556.71 1430.1 1560.4 Q1432.78 1564.07 1437.42 1564.07 Q1442.07 1564.07 1444.71 1560.4 Q1447.39 1556.71 1447.39 1550.25 M1427.46 1537.81 Q1429.31 1534.62 1432.11 1533.1 Q1434.94 1531.54 1438.86 1531.54 Q1445.35 1531.54 1449.39 1536.69 Q1453.46 1541.85 1453.46 1550.25 Q1453.46 1558.65 1449.39 1563.81 Q1445.35 1568.97 1438.86 1568.97 Q1434.94 1568.97 1432.11 1567.44 Q1429.31 1565.88 1427.46 1562.7 L1427.46 1568.04 L1421.57 1568.04 L1421.57 1518.52 L1427.46 1518.52 L1427.46 1537.81 Z" fill="#000000" fill-rule="nonzero" fill-opacity="1" /><path clip-path="url(#clip350)" d="M1493.66 1548.76 L1493.66 1551.62 L1466.74 1551.62 Q1467.12 1557.67 1470.37 1560.85 Q1473.64 1564 1479.47 1564 Q1482.84 1564 1485.99 1563.17 Q1489.18 1562.35 1492.3 1560.69 L1492.3 1566.23 Q1489.14 1567.57 1485.83 1568.27 Q1482.52 1568.97 1479.12 1568.97 Q1470.59 1568.97 1465.59 1564 Q1460.63 1559.04 1460.63 1550.57 Q1460.63 1541.82 1465.34 1536.69 Q1470.08 1531.54 1478.1 1531.54 Q1485.29 1531.54 1489.46 1536.18 Q1493.66 1540.8 1493.66 1548.76 M1487.81 1547.04 Q1487.74 1542.23 1485.1 1539.37 Q1482.49 1536.5 1478.16 1536.5 Q1473.26 1536.5 1470.3 1539.27 Q1467.37 1542.04 1466.93 1547.07 L1487.81 1547.04 Z" fill="#000000" fill-rule="nonzero" fill-opacity="1" /><path clip-path="url(#clip350)" d="M1523.93 1537.87 Q1522.95 1537.3 1521.77 1537.04 Q1520.62 1536.76 1519.22 1536.76 Q1514.26 1536.76 1511.58 1540 Q1508.94 1543.22 1508.94 1549.27 L1508.94 1568.04 L1503.05 1568.04 L1503.05 1532.4 L1508.94 1532.4 L1508.94 1537.93 Q1510.79 1534.69 1513.75 1533.13 Q1516.71 1531.54 1520.94 1531.54 Q1521.55 1531.54 1522.28 1531.63 Q1523.01 1531.7 1523.9 1531.85 L1523.93 1537.87 Z" fill="#000000" fill-rule="nonzero" fill-opacity="1" /><path clip-path="url(#clip350)" d="M1551.05 1520.52 L1557.48 1520.52 L1557.48 1562.63 L1580.62 1562.63 L1580.62 1568.04 L1551.05 1568.04 L1551.05 1520.52 Z" fill="#000000" fill-rule="nonzero" fill-opacity="1" /><path clip-path="url(#clip350)" d="M1597.52 1520.52 L1602.93 1520.52 L1586.38 1574.09 L1580.97 1574.09 L1597.52 1520.52 Z" fill="#000000" fill-rule="nonzero" fill-opacity="1" /><path clip-path="url(#clip350)" d="M1636.83 1539.24 Q1639.02 1535.29 1642.08 1533.41 Q1645.14 1531.54 1649.27 1531.54 Q1654.84 1531.54 1657.87 1535.45 Q1660.89 1539.33 1660.89 1546.53 L1660.89 1568.04 L1655 1568.04 L1655 1546.72 Q1655 1541.59 1653.19 1539.11 Q1651.37 1536.63 1647.65 1536.63 Q1643.1 1536.63 1640.46 1539.65 Q1637.82 1542.68 1637.82 1547.9 L1637.82 1568.04 L1631.93 1568.04 L1631.93 1546.72 Q1631.93 1541.56 1630.11 1539.11 Q1628.3 1536.63 1624.51 1536.63 Q1620.02 1536.63 1617.38 1539.68 Q1614.74 1542.71 1614.74 1547.9 L1614.74 1568.04 L1608.85 1568.04 L1608.85 1532.4 L1614.74 1532.4 L1614.74 1537.93 Q1616.74 1534.66 1619.55 1533.1 Q1622.35 1531.54 1626.2 1531.54 Q1630.08 1531.54 1632.79 1533.51 Q1635.52 1535.48 1636.83 1539.24 Z" fill="#000000" fill-rule="nonzero" fill-opacity="1" /><polyline clip-path="url(#clip350)" style="stroke:#000000; stroke-linecap:round; stroke-linejoin:round; stroke-width:4; stroke-opacity:1; fill:none" points="249.542,1423.18 249.542,123.472 "/>
<polyline clip-path="url(#clip350)" style="stroke:#000000; stroke-linecap:round; stroke-linejoin:round; stroke-width:4; stroke-opacity:1; fill:none" points="249.542,1386.4 268.44,1386.4 "/>
<polyline clip-path="url(#clip350)" style="stroke:#000000; stroke-linecap:round; stroke-linejoin:round; stroke-width:4; stroke-opacity:1; fill:none" points="249.542,1079.86 268.44,1079.86 "/>
<polyline clip-path="url(#clip350)" style="stroke:#000000; stroke-linecap:round; stroke-linejoin:round; stroke-width:4; stroke-opacity:1; fill:none" points="249.542,773.326 268.44,773.326 "/>
<polyline clip-path="url(#clip350)" style="stroke:#000000; stroke-linecap:round; stroke-linejoin:round; stroke-width:4; stroke-opacity:1; fill:none" points="249.542,466.791 268.44,466.791 "/>
<polyline clip-path="url(#clip350)" style="stroke:#000000; stroke-linecap:round; stroke-linejoin:round; stroke-width:4; stroke-opacity:1; fill:none" points="249.542,160.256 268.44,160.256 "/>
<path clip-path="url(#clip350)" d="M126.205 1372.19 Q122.593 1372.19 120.765 1375.76 Q118.959 1379.3 118.959 1386.43 Q118.959 1393.54 120.765 1397.1 Q122.593 1400.64 126.205 1400.64 Q129.839 1400.64 131.644 1397.1 Q133.473 1393.54 133.473 1386.43 Q133.473 1379.3 131.644 1375.76 Q129.839 1372.19 126.205 1372.19 M126.205 1368.49 Q132.015 1368.49 135.07 1373.1 Q138.149 1377.68 138.149 1386.43 Q138.149 1395.16 135.07 1399.76 Q132.015 1404.35 126.205 1404.35 Q120.394 1404.35 117.316 1399.76 Q114.26 1395.16 114.26 1386.43 Q114.26 1377.68 117.316 1373.1 Q120.394 1368.49 126.205 1368.49 Z" fill="#000000" fill-rule="nonzero" fill-opacity="1" /><path clip-path="url(#clip350)" d="M146.366 1397.8 L151.251 1397.8 L151.251 1403.68 L146.366 1403.68 L146.366 1397.8 Z" fill="#000000" fill-rule="nonzero" fill-opacity="1" /><path clip-path="url(#clip350)" d="M171.436 1372.19 Q167.825 1372.19 165.996 1375.76 Q164.19 1379.3 164.19 1386.43 Q164.19 1393.54 165.996 1397.1 Q167.825 1400.64 171.436 1400.64 Q175.07 1400.64 176.876 1397.1 Q178.704 1393.54 178.704 1386.43 Q178.704 1379.3 176.876 1375.76 Q175.07 1372.19 171.436 1372.19 M171.436 1368.49 Q177.246 1368.49 180.301 1373.1 Q183.38 1377.68 183.38 1386.43 Q183.38 1395.16 180.301 1399.76 Q177.246 1404.35 171.436 1404.35 Q165.626 1404.35 162.547 1399.76 Q159.491 1395.16 159.491 1386.43 Q159.491 1377.68 162.547 1373.1 Q165.626 1368.49 171.436 1368.49 Z" fill="#000000" fill-rule="nonzero" fill-opacity="1" /><path clip-path="url(#clip350)" d="M201.598 1372.19 Q197.987 1372.19 196.158 1375.76 Q194.352 1379.3 194.352 1386.43 Q194.352 1393.54 196.158 1397.1 Q197.987 1400.64 201.598 1400.64 Q205.232 1400.64 207.037 1397.1 Q208.866 1393.54 208.866 1386.43 Q208.866 1379.3 207.037 1375.76 Q205.232 1372.19 201.598 1372.19 M201.598 1368.49 Q207.408 1368.49 210.463 1373.1 Q213.542 1377.68 213.542 1386.43 Q213.542 1395.16 210.463 1399.76 Q207.408 1404.35 201.598 1404.35 Q195.787 1404.35 192.709 1399.76 Q189.653 1395.16 189.653 1386.43 Q189.653 1377.68 192.709 1373.1 Q195.787 1368.49 201.598 1368.49 Z" fill="#000000" fill-rule="nonzero" fill-opacity="1" /><path clip-path="url(#clip350)" d="M127.2 1065.66 Q123.589 1065.66 121.76 1069.22 Q119.955 1072.77 119.955 1079.9 Q119.955 1087 121.76 1090.57 Q123.589 1094.11 127.2 1094.11 Q130.834 1094.11 132.64 1090.57 Q134.468 1087 134.468 1079.9 Q134.468 1072.77 132.64 1069.22 Q130.834 1065.66 127.2 1065.66 M127.2 1061.96 Q133.01 1061.96 136.066 1066.56 Q139.144 1071.15 139.144 1079.9 Q139.144 1088.62 136.066 1093.23 Q133.01 1097.81 127.2 1097.81 Q121.39 1097.81 118.311 1093.23 Q115.256 1088.62 115.256 1079.9 Q115.256 1071.15 118.311 1066.56 Q121.39 1061.96 127.2 1061.96 Z" fill="#000000" fill-rule="nonzero" fill-opacity="1" /><path clip-path="url(#clip350)" d="M147.362 1091.26 L152.246 1091.26 L152.246 1097.14 L147.362 1097.14 L147.362 1091.26 Z" fill="#000000" fill-rule="nonzero" fill-opacity="1" /><path clip-path="url(#clip350)" d="M166.459 1093.21 L182.778 1093.21 L182.778 1097.14 L160.834 1097.14 L160.834 1093.21 Q163.496 1090.45 168.079 1085.82 Q172.686 1081.17 173.866 1079.83 Q176.112 1077.3 176.991 1075.57 Q177.894 1073.81 177.894 1072.12 Q177.894 1069.36 175.95 1067.63 Q174.028 1065.89 170.927 1065.89 Q168.727 1065.89 166.274 1066.65 Q163.843 1067.42 161.065 1068.97 L161.065 1064.25 Q163.89 1063.11 166.343 1062.53 Q168.797 1061.96 170.834 1061.96 Q176.204 1061.96 179.399 1064.64 Q182.593 1067.33 182.593 1071.82 Q182.593 1073.95 181.783 1075.87 Q180.996 1077.77 178.889 1080.36 Q178.311 1081.03 175.209 1084.25 Q172.107 1087.44 166.459 1093.21 Z" fill="#000000" fill-rule="nonzero" fill-opacity="1" /><path clip-path="url(#clip350)" d="M192.639 1062.58 L210.996 1062.58 L210.996 1066.52 L196.922 1066.52 L196.922 1074.99 Q197.94 1074.64 198.959 1074.48 Q199.977 1074.29 200.996 1074.29 Q206.783 1074.29 210.162 1077.47 Q213.542 1080.64 213.542 1086.05 Q213.542 1091.63 210.07 1094.73 Q206.598 1097.81 200.278 1097.81 Q198.102 1097.81 195.834 1097.44 Q193.588 1097.07 191.181 1096.33 L191.181 1091.63 Q193.264 1092.77 195.487 1093.32 Q197.709 1093.88 200.186 1093.88 Q204.19 1093.88 206.528 1091.77 Q208.866 1089.66 208.866 1086.05 Q208.866 1082.44 206.528 1080.34 Q204.19 1078.23 200.186 1078.23 Q198.311 1078.23 196.436 1078.65 Q194.584 1079.06 192.639 1079.94 L192.639 1062.58 Z" fill="#000000" fill-rule="nonzero" fill-opacity="1" /><path clip-path="url(#clip350)" d="M126.205 759.125 Q122.593 759.125 120.765 762.689 Q118.959 766.231 118.959 773.361 Q118.959 780.467 120.765 784.032 Q122.593 787.574 126.205 787.574 Q129.839 787.574 131.644 784.032 Q133.473 780.467 133.473 773.361 Q133.473 766.231 131.644 762.689 Q129.839 759.125 126.205 759.125 M126.205 755.421 Q132.015 755.421 135.07 760.027 Q138.149 764.611 138.149 773.361 Q138.149 782.088 135.07 786.694 Q132.015 791.277 126.205 791.277 Q120.394 791.277 117.316 786.694 Q114.26 782.088 114.26 773.361 Q114.26 764.611 117.316 760.027 Q120.394 755.421 126.205 755.421 Z" fill="#000000" fill-rule="nonzero" fill-opacity="1" /><path clip-path="url(#clip350)" d="M146.366 784.726 L151.251 784.726 L151.251 790.606 L146.366 790.606 L146.366 784.726 Z" fill="#000000" fill-rule="nonzero" fill-opacity="1" /><path clip-path="url(#clip350)" d="M161.482 756.046 L179.839 756.046 L179.839 759.981 L165.765 759.981 L165.765 768.453 Q166.783 768.106 167.802 767.944 Q168.82 767.759 169.839 767.759 Q175.626 767.759 179.005 770.93 Q182.385 774.101 182.385 779.518 Q182.385 785.097 178.913 788.199 Q175.44 791.277 169.121 791.277 Q166.945 791.277 164.677 790.907 Q162.431 790.537 160.024 789.796 L160.024 785.097 Q162.107 786.231 164.329 786.787 Q166.552 787.342 169.028 787.342 Q173.033 787.342 175.371 785.236 Q177.709 783.129 177.709 779.518 Q177.709 775.907 175.371 773.801 Q173.033 771.694 169.028 771.694 Q167.153 771.694 165.278 772.111 Q163.427 772.527 161.482 773.407 L161.482 756.046 Z" fill="#000000" fill-rule="nonzero" fill-opacity="1" /><path clip-path="url(#clip350)" d="M201.598 759.125 Q197.987 759.125 196.158 762.689 Q194.352 766.231 194.352 773.361 Q194.352 780.467 196.158 784.032 Q197.987 787.574 201.598 787.574 Q205.232 787.574 207.037 784.032 Q208.866 780.467 208.866 773.361 Q208.866 766.231 207.037 762.689 Q205.232 759.125 201.598 759.125 M201.598 755.421 Q207.408 755.421 210.463 760.027 Q213.542 764.611 213.542 773.361 Q213.542 782.088 210.463 786.694 Q207.408 791.277 201.598 791.277 Q195.787 791.277 192.709 786.694 Q189.653 782.088 189.653 773.361 Q189.653 764.611 192.709 760.027 Q195.787 755.421 201.598 755.421 Z" fill="#000000" fill-rule="nonzero" fill-opacity="1" /><path clip-path="url(#clip350)" d="M127.2 452.59 Q123.589 452.59 121.76 456.155 Q119.955 459.696 119.955 466.826 Q119.955 473.932 121.76 477.497 Q123.589 481.039 127.2 481.039 Q130.834 481.039 132.64 477.497 Q134.468 473.932 134.468 466.826 Q134.468 459.696 132.64 456.155 Q130.834 452.59 127.2 452.59 M127.2 448.886 Q133.01 448.886 136.066 453.493 Q139.144 458.076 139.144 466.826 Q139.144 475.553 136.066 480.159 Q133.01 484.742 127.2 484.742 Q121.39 484.742 118.311 480.159 Q115.256 475.553 115.256 466.826 Q115.256 458.076 118.311 453.493 Q121.39 448.886 127.2 448.886 Z" fill="#000000" fill-rule="nonzero" fill-opacity="1" /><path clip-path="url(#clip350)" d="M147.362 478.192 L152.246 478.192 L152.246 484.071 L147.362 484.071 L147.362 478.192 Z" fill="#000000" fill-rule="nonzero" fill-opacity="1" /><path clip-path="url(#clip350)" d="M161.251 449.511 L183.473 449.511 L183.473 451.502 L170.927 484.071 L166.042 484.071 L177.848 453.446 L161.251 453.446 L161.251 449.511 Z" fill="#000000" fill-rule="nonzero" fill-opacity="1" /><path clip-path="url(#clip350)" d="M192.639 449.511 L210.996 449.511 L210.996 453.446 L196.922 453.446 L196.922 461.918 Q197.94 461.571 198.959 461.409 Q199.977 461.224 200.996 461.224 Q206.783 461.224 210.162 464.395 Q213.542 467.567 213.542 472.983 Q213.542 478.562 210.07 481.664 Q206.598 484.742 200.278 484.742 Q198.102 484.742 195.834 484.372 Q193.588 484.002 191.181 483.261 L191.181 478.562 Q193.264 479.696 195.487 480.252 Q197.709 480.807 200.186 480.807 Q204.19 480.807 206.528 478.701 Q208.866 476.594 208.866 472.983 Q208.866 469.372 206.528 467.266 Q204.19 465.159 200.186 465.159 Q198.311 465.159 196.436 465.576 Q194.584 465.993 192.639 466.872 L192.639 449.511 Z" fill="#000000" fill-rule="nonzero" fill-opacity="1" /><path clip-path="url(#clip350)" d="M117.015 173.601 L124.654 173.601 L124.654 147.236 L116.343 148.902 L116.343 144.643 L124.607 142.976 L129.283 142.976 L129.283 173.601 L136.922 173.601 L136.922 177.536 L117.015 177.536 L117.015 173.601 Z" fill="#000000" fill-rule="nonzero" fill-opacity="1" /><path clip-path="url(#clip350)" d="M146.366 171.657 L151.251 171.657 L151.251 177.536 L146.366 177.536 L146.366 171.657 Z" fill="#000000" fill-rule="nonzero" fill-opacity="1" /><path clip-path="url(#clip350)" d="M171.436 146.055 Q167.825 146.055 165.996 149.62 Q164.19 153.161 164.19 160.291 Q164.19 167.397 165.996 170.962 Q167.825 174.504 171.436 174.504 Q175.07 174.504 176.876 170.962 Q178.704 167.397 178.704 160.291 Q178.704 153.161 176.876 149.62 Q175.07 146.055 171.436 146.055 M171.436 142.351 Q177.246 142.351 180.301 146.958 Q183.38 151.541 183.38 160.291 Q183.38 169.018 180.301 173.624 Q177.246 178.208 171.436 178.208 Q165.626 178.208 162.547 173.624 Q159.491 169.018 159.491 160.291 Q159.491 151.541 162.547 146.958 Q165.626 142.351 171.436 142.351 Z" fill="#000000" fill-rule="nonzero" fill-opacity="1" /><path clip-path="url(#clip350)" d="M201.598 146.055 Q197.987 146.055 196.158 149.62 Q194.352 153.161 194.352 160.291 Q194.352 167.397 196.158 170.962 Q197.987 174.504 201.598 174.504 Q205.232 174.504 207.037 170.962 Q208.866 167.397 208.866 160.291 Q208.866 153.161 207.037 149.62 Q205.232 146.055 201.598 146.055 M201.598 142.351 Q207.408 142.351 210.463 146.958 Q213.542 151.541 213.542 160.291 Q213.542 169.018 210.463 173.624 Q207.408 178.208 201.598 178.208 Q195.787 178.208 192.709 173.624 Q189.653 169.018 189.653 160.291 Q189.653 151.541 192.709 146.958 Q195.787 142.351 201.598 142.351 Z" fill="#000000" fill-rule="nonzero" fill-opacity="1" /><path clip-path="url(#clip350)" d="M20.1444 1022.89 L26.9239 1022.89 Q23.9002 1026.14 22.4043 1029.83 Q20.9083 1033.49 20.9083 1037.63 Q20.9083 1045.78 25.9054 1050.11 Q30.8707 1054.44 40.2919 1054.44 Q49.6813 1054.44 54.6784 1050.11 Q59.6436 1045.78 59.6436 1037.63 Q59.6436 1033.49 58.1477 1029.83 Q56.6518 1026.14 53.6281 1022.89 L60.3439 1022.89 Q62.6355 1026.27 63.7814 1030.05 Q64.9272 1033.81 64.9272 1038.01 Q64.9272 1048.8 58.3387 1055.01 Q51.7183 1061.22 40.2919 1061.22 Q28.8336 1061.22 22.2451 1055.01 Q15.6248 1048.8 15.6248 1038.01 Q15.6248 1033.75 16.7706 1029.99 Q17.8846 1026.2 20.1444 1022.89 Z" fill="#000000" fill-rule="nonzero" fill-opacity="1" /><path clip-path="url(#clip350)" d="M32.4621 999.404 Q32.4621 1004.11 36.1542 1006.85 Q39.8145 1009.59 46.212 1009.59 Q52.6095 1009.59 56.3017 1006.88 Q59.9619 1004.15 59.9619 999.404 Q59.9619 994.725 56.2698 991.988 Q52.5777 989.251 46.212 989.251 Q39.8781 989.251 36.186 991.988 Q32.4621 994.725 32.4621 999.404 M27.4968 999.404 Q27.4968 991.765 32.4621 987.405 Q37.4273 983.044 46.212 983.044 Q54.9649 983.044 59.9619 987.405 Q64.9272 991.765 64.9272 999.404 Q64.9272 1007.07 59.9619 1011.44 Q54.9649 1015.76 46.212 1015.76 Q37.4273 1015.76 32.4621 1011.44 Q27.4968 1007.07 27.4968 999.404 Z" fill="#000000" fill-rule="nonzero" fill-opacity="1" /><path clip-path="url(#clip350)" d="M42.4881 943.704 L64.0042 943.704 L64.0042 949.561 L42.679 949.561 Q37.6183 949.561 35.1038 951.534 Q32.5894 953.507 32.5894 957.454 Q32.5894 962.196 35.6131 964.934 Q38.6368 967.671 43.8567 967.671 L64.0042 967.671 L64.0042 973.559 L28.3562 973.559 L28.3562 967.671 L33.8944 967.671 Q30.6797 965.57 29.0883 962.738 Q27.4968 959.873 27.4968 956.149 Q27.4968 950.006 31.3163 946.855 Q35.1038 943.704 42.4881 943.704 Z" fill="#000000" fill-rule="nonzero" fill-opacity="1" /><path clip-path="url(#clip350)" d="M28.3562 936.224 L28.3562 930.018 L58.275 918.878 L28.3562 907.738 L28.3562 901.531 L64.0042 914.899 L64.0042 922.856 L28.3562 936.224 Z" fill="#000000" fill-rule="nonzero" fill-opacity="1" /><path clip-path="url(#clip350)" d="M44.7161 862.955 L47.5806 862.955 L47.5806 889.882 Q53.6281 889.5 56.8109 886.254 Q59.9619 882.975 59.9619 877.151 Q59.9619 873.777 59.1344 870.626 Q58.3069 867.443 56.6518 864.324 L62.1899 864.324 Q63.5267 867.475 64.227 870.785 Q64.9272 874.095 64.9272 877.501 Q64.9272 886.031 59.9619 891.028 Q54.9967 895.993 46.5303 895.993 Q37.7774 895.993 32.6531 891.283 Q27.4968 886.54 27.4968 878.519 Q27.4968 871.326 32.1438 867.156 Q36.7589 862.955 44.7161 862.955 M42.9973 868.812 Q38.1912 868.875 35.3266 871.517 Q32.4621 874.127 32.4621 878.456 Q32.4621 883.357 35.2312 886.317 Q38.0002 889.246 43.0292 889.691 L42.9973 868.812 Z" fill="#000000" fill-rule="nonzero" fill-opacity="1" /><path clip-path="url(#clip350)" d="M33.8307 832.686 Q33.2578 833.673 33.0032 834.851 Q32.7167 835.996 32.7167 837.397 Q32.7167 842.362 35.9632 845.036 Q39.1779 847.677 45.2253 847.677 L64.0042 847.677 L64.0042 853.566 L28.3562 853.566 L28.3562 847.677 L33.8944 847.677 Q30.6479 845.831 29.0883 842.871 Q27.4968 839.911 27.4968 835.678 Q27.4968 835.073 27.5923 834.341 Q27.656 833.609 27.8151 832.718 L33.8307 832.686 Z" fill="#000000" fill-rule="nonzero" fill-opacity="1" /><path clip-path="url(#clip350)" d="M45.7664 804.231 Q39.4007 804.231 35.8996 806.873 Q32.3984 809.483 32.3984 814.226 Q32.3984 818.936 35.8996 821.578 Q39.4007 824.188 45.7664 824.188 Q52.1003 824.188 55.6014 821.578 Q59.1026 818.936 59.1026 814.226 Q59.1026 809.483 55.6014 806.873 Q52.1003 804.231 45.7664 804.231 M59.58 798.375 Q68.683 798.375 73.1071 802.417 Q77.5631 806.459 77.5631 814.799 Q77.5631 817.886 77.0857 820.623 Q76.6401 823.36 75.6852 825.939 L69.9879 825.939 Q71.3884 823.36 72.0568 820.846 Q72.7252 818.332 72.7252 815.722 Q72.7252 809.961 69.7015 807.096 Q66.7096 804.231 60.6303 804.231 L57.7339 804.231 Q60.885 806.046 62.4446 808.878 Q64.0042 811.711 64.0042 815.658 Q64.0042 822.215 59.0071 826.225 Q54.01 830.235 45.7664 830.235 Q37.491 830.235 32.4939 826.225 Q27.4968 822.215 27.4968 815.658 Q27.4968 811.711 29.0564 808.878 Q30.616 806.046 33.7671 804.231 L28.3562 804.231 L28.3562 798.375 L59.58 798.375 Z" fill="#000000" fill-rule="nonzero" fill-opacity="1" /><path clip-path="url(#clip350)" d="M44.7161 755.82 L47.5806 755.82 L47.5806 782.747 Q53.6281 782.365 56.8109 779.119 Q59.9619 775.84 59.9619 770.016 Q59.9619 766.642 59.1344 763.491 Q58.3069 760.308 56.6518 757.189 L62.1899 757.189 Q63.5267 760.34 64.227 763.65 Q64.9272 766.96 64.9272 770.366 Q64.9272 778.896 59.9619 783.893 Q54.9967 788.858 46.5303 788.858 Q37.7774 788.858 32.6531 784.148 Q27.4968 779.405 27.4968 771.384 Q27.4968 764.191 32.1438 760.022 Q36.7589 755.82 44.7161 755.82 M42.9973 761.677 Q38.1912 761.74 35.3266 764.382 Q32.4621 766.992 32.4621 771.321 Q32.4621 776.222 35.2312 779.182 Q38.0002 782.111 43.0292 782.556 L42.9973 761.677 Z" fill="#000000" fill-rule="nonzero" fill-opacity="1" /><path clip-path="url(#clip350)" d="M42.4881 716.576 L64.0042 716.576 L64.0042 722.432 L42.679 722.432 Q37.6183 722.432 35.1038 724.406 Q32.5894 726.379 32.5894 730.326 Q32.5894 735.068 35.6131 737.805 Q38.6368 740.543 43.8567 740.543 L64.0042 740.543 L64.0042 746.431 L28.3562 746.431 L28.3562 740.543 L33.8944 740.543 Q30.6797 738.442 29.0883 735.609 Q27.4968 732.745 27.4968 729.021 Q27.4968 722.878 31.3163 719.727 Q35.1038 716.576 42.4881 716.576 Z" fill="#000000" fill-rule="nonzero" fill-opacity="1" /><path clip-path="url(#clip350)" d="M29.7248 679.241 L35.1993 679.241 Q33.8307 681.723 33.1623 684.238 Q32.4621 686.721 32.4621 689.267 Q32.4621 694.964 36.0905 698.115 Q39.6872 701.266 46.212 701.266 Q52.7369 701.266 56.3653 698.115 Q59.9619 694.964 59.9619 689.267 Q59.9619 686.721 59.2935 684.238 Q58.5933 681.723 57.2247 679.241 L62.6355 679.241 Q63.7814 681.692 64.3543 684.333 Q64.9272 686.943 64.9272 689.903 Q64.9272 697.956 59.8664 702.698 Q54.8057 707.441 46.212 707.441 Q37.491 707.441 32.4939 702.667 Q27.4968 697.861 27.4968 689.521 Q27.4968 686.816 28.0697 684.238 Q28.6108 681.66 29.7248 679.241 Z" fill="#000000" fill-rule="nonzero" fill-opacity="1" /><path clip-path="url(#clip350)" d="M44.7161 638.564 L47.5806 638.564 L47.5806 665.491 Q53.6281 665.109 56.8109 661.862 Q59.9619 658.584 59.9619 652.76 Q59.9619 649.386 59.1344 646.235 Q58.3069 643.052 56.6518 639.933 L62.1899 639.933 Q63.5267 643.084 64.227 646.394 Q64.9272 649.704 64.9272 653.11 Q64.9272 661.64 59.9619 666.637 Q54.9967 671.602 46.5303 671.602 Q37.7774 671.602 32.6531 666.891 Q27.4968 662.149 27.4968 654.128 Q27.4968 646.935 32.1438 642.765 Q36.7589 638.564 44.7161 638.564 M42.9973 644.42 Q38.1912 644.484 35.3266 647.126 Q32.4621 649.736 32.4621 654.064 Q32.4621 658.966 35.2312 661.926 Q38.0002 664.854 43.0292 665.3 L42.9973 644.42 Z" fill="#000000" fill-rule="nonzero" fill-opacity="1" /><path clip-path="url(#clip350)" d="M33.8307 587.575 Q33.2578 588.561 33.0032 589.739 Q32.7167 590.885 32.7167 592.285 Q32.7167 597.251 35.9632 599.924 Q39.1779 602.566 45.2253 602.566 L64.0042 602.566 L64.0042 608.454 L28.3562 608.454 L28.3562 602.566 L33.8944 602.566 Q30.6479 600.72 29.0883 597.76 Q27.4968 594.8 27.4968 590.567 Q27.4968 589.962 27.5923 589.23 Q27.656 588.498 27.8151 587.606 L33.8307 587.575 Z" fill="#000000" fill-rule="nonzero" fill-opacity="1" /><path clip-path="url(#clip350)" d="M46.0847 565.231 Q46.0847 572.329 47.7079 575.066 Q49.3312 577.803 53.2461 577.803 Q56.3653 577.803 58.2114 575.766 Q60.0256 573.697 60.0256 570.164 Q60.0256 565.295 56.5881 562.366 Q53.1188 559.406 47.3897 559.406 L46.0847 559.406 L46.0847 565.231 M43.6657 553.55 L64.0042 553.55 L64.0042 559.406 L58.5933 559.406 Q61.8398 561.412 63.3994 564.403 Q64.9272 567.395 64.9272 571.724 Q64.9272 577.199 61.8716 580.445 Q58.7843 583.66 53.6281 583.66 Q47.6125 583.66 44.5569 579.649 Q41.5014 575.607 41.5014 567.618 L41.5014 559.406 L40.9285 559.406 Q36.8862 559.406 34.6901 562.08 Q32.4621 564.722 32.4621 569.528 Q32.4621 572.583 33.1941 575.48 Q33.9262 578.376 35.3903 581.05 L29.9795 581.05 Q28.7381 577.835 28.1334 574.811 Q27.4968 571.788 27.4968 568.923 Q27.4968 561.189 31.5072 557.369 Q35.5176 553.55 43.6657 553.55 Z" fill="#000000" fill-rule="nonzero" fill-opacity="1" /><path clip-path="url(#clip350)" d="M18.2347 535.694 L28.3562 535.694 L28.3562 523.631 L32.9077 523.631 L32.9077 535.694 L52.2594 535.694 Q56.6199 535.694 57.8613 534.516 Q59.1026 533.307 59.1026 529.647 L59.1026 523.631 L64.0042 523.631 L64.0042 529.647 Q64.0042 536.426 61.4897 539.004 Q58.9434 541.582 52.2594 541.582 L32.9077 541.582 L32.9077 545.879 L28.3562 545.879 L28.3562 541.582 L18.2347 541.582 L18.2347 535.694 Z" fill="#000000" fill-rule="nonzero" fill-opacity="1" /><path clip-path="url(#clip350)" d="M44.7161 485.437 L47.5806 485.437 L47.5806 512.364 Q53.6281 511.982 56.8109 508.735 Q59.9619 505.457 59.9619 499.632 Q59.9619 496.259 59.1344 493.108 Q58.3069 489.925 56.6518 486.806 L62.1899 486.806 Q63.5267 489.957 64.227 493.267 Q64.9272 496.577 64.9272 499.983 Q64.9272 508.513 59.9619 513.51 Q54.9967 518.475 46.5303 518.475 Q37.7774 518.475 32.6531 513.764 Q27.4968 509.022 27.4968 501.001 Q27.4968 493.808 32.1438 489.638 Q36.7589 485.437 44.7161 485.437 M42.9973 491.293 Q38.1912 491.357 35.3266 493.999 Q32.4621 496.609 32.4621 500.937 Q32.4621 505.839 35.2312 508.799 Q38.0002 511.727 43.0292 512.173 L42.9973 491.293 Z" fill="#000000" fill-rule="nonzero" fill-opacity="1" /><path clip-path="url(#clip350)" d="M713.525 16.7545 L713.525 25.383 Q709.393 21.5346 704.694 19.6307 Q700.035 17.7268 694.769 17.7268 Q684.399 17.7268 678.89 24.0867 Q673.38 30.4061 673.38 42.3968 Q673.38 54.3469 678.89 60.7069 Q684.399 67.0263 694.769 67.0263 Q700.035 67.0263 704.694 65.1223 Q709.393 63.2184 713.525 59.3701 L713.525 67.9175 Q709.231 70.8341 704.41 72.2924 Q699.63 73.7508 694.283 73.7508 Q680.55 73.7508 672.651 65.3654 Q664.752 56.9395 664.752 42.3968 Q664.752 27.8135 672.651 19.4281 Q680.55 11.0023 694.283 11.0023 Q699.711 11.0023 704.491 12.4606 Q709.312 13.8784 713.525 16.7545 Z" fill="#000000" fill-rule="nonzero" fill-opacity="1" /><path clip-path="url(#clip350)" d="M743.42 32.4315 Q737.425 32.4315 733.941 37.1306 Q730.458 41.7891 730.458 49.9314 Q730.458 58.0738 733.901 62.7728 Q737.385 67.4314 743.42 67.4314 Q749.375 67.4314 752.859 62.7323 Q756.343 58.0333 756.343 49.9314 Q756.343 41.8701 752.859 37.1711 Q749.375 32.4315 743.42 32.4315 M743.42 26.1121 Q753.143 26.1121 758.692 32.4315 Q764.242 38.7509 764.242 49.9314 Q764.242 61.0714 758.692 67.4314 Q753.143 73.7508 743.42 73.7508 Q733.658 73.7508 728.108 67.4314 Q722.599 61.0714 722.599 49.9314 Q722.599 38.7509 728.108 32.4315 Q733.658 26.1121 743.42 26.1121 Z" fill="#000000" fill-rule="nonzero" fill-opacity="1" /><path clip-path="url(#clip350)" d="M814.311 45.1919 L814.311 72.576 L806.858 72.576 L806.858 45.4349 Q806.858 38.994 804.346 35.7938 Q801.835 32.5936 796.811 32.5936 Q790.776 32.5936 787.292 36.4419 Q783.808 40.2903 783.808 46.9338 L783.808 72.576 L776.314 72.576 L776.314 27.2059 L783.808 27.2059 L783.808 34.2544 Q786.482 30.163 790.087 28.1376 Q793.733 26.1121 798.472 26.1121 Q806.291 26.1121 810.301 30.9732 Q814.311 35.7938 814.311 45.1919 Z" fill="#000000" fill-rule="nonzero" fill-opacity="1" /><path clip-path="url(#clip350)" d="M823.831 27.2059 L831.73 27.2059 L845.908 65.2844 L860.087 27.2059 L867.986 27.2059 L850.972 72.576 L840.845 72.576 L823.831 27.2059 Z" fill="#000000" fill-rule="nonzero" fill-opacity="1" /><path clip-path="url(#clip350)" d="M917.083 48.0275 L917.083 51.6733 L882.812 51.6733 Q883.298 59.3701 887.43 63.421 Q891.603 67.4314 899.016 67.4314 Q903.31 67.4314 907.32 66.3781 Q911.371 65.3249 915.341 63.2184 L915.341 70.267 Q911.33 71.9684 907.118 72.8596 Q902.905 73.7508 898.57 73.7508 Q887.714 73.7508 881.354 67.4314 Q875.034 61.1119 875.034 50.3365 Q875.034 39.1965 881.03 32.6746 Q887.066 26.1121 897.274 26.1121 Q906.429 26.1121 911.736 32.0264 Q917.083 37.9003 917.083 48.0275 M909.629 45.84 Q909.548 39.7232 906.186 36.0774 Q902.864 32.4315 897.355 32.4315 Q891.116 32.4315 887.349 35.9558 Q883.622 39.4801 883.055 45.8805 L909.629 45.84 Z" fill="#000000" fill-rule="nonzero" fill-opacity="1" /><path clip-path="url(#clip350)" d="M955.607 34.1734 Q954.351 33.4443 952.852 33.1202 Q951.394 32.7556 949.612 32.7556 Q943.292 32.7556 939.889 36.8875 Q936.527 40.9789 936.527 48.6757 L936.527 72.576 L929.033 72.576 L929.033 27.2059 L936.527 27.2059 L936.527 34.2544 Q938.877 30.1225 942.644 28.1376 Q946.411 26.1121 951.799 26.1121 Q952.569 26.1121 953.5 26.2337 Q954.432 26.3147 955.566 26.5172 L955.607 34.1734 Z" fill="#000000" fill-rule="nonzero" fill-opacity="1" /><path clip-path="url(#clip350)" d="M991.822 49.3643 Q991.822 41.2625 988.46 36.8065 Q985.138 32.3505 979.102 32.3505 Q973.107 32.3505 969.744 36.8065 Q966.423 41.2625 966.423 49.3643 Q966.423 57.4256 969.744 61.8816 Q973.107 66.3376 979.102 66.3376 Q985.138 66.3376 988.46 61.8816 Q991.822 57.4256 991.822 49.3643 M999.276 66.9452 Q999.276 78.5308 994.131 84.1616 Q988.986 89.8329 978.373 89.8329 Q974.444 89.8329 970.96 89.2252 Q967.476 88.6581 964.195 87.4428 L964.195 80.1917 Q967.476 81.9741 970.676 82.8248 Q973.876 83.6755 977.198 83.6755 Q984.53 83.6755 988.176 79.8271 Q991.822 76.0193 991.822 68.282 L991.822 64.5957 Q989.513 68.6061 985.908 70.5911 Q982.302 72.576 977.279 72.576 Q968.934 72.576 963.83 66.2161 Q958.726 59.8562 958.726 49.3643 Q958.726 38.832 963.83 32.472 Q968.934 26.1121 977.279 26.1121 Q982.302 26.1121 985.908 28.0971 Q989.513 30.082 991.822 34.0924 L991.822 27.2059 L999.276 27.2059 L999.276 66.9452 Z" fill="#000000" fill-rule="nonzero" fill-opacity="1" /><path clip-path="url(#clip350)" d="M1053.44 48.0275 L1053.44 51.6733 L1019.17 51.6733 Q1019.65 59.3701 1023.78 63.421 Q1027.96 67.4314 1035.37 67.4314 Q1039.66 67.4314 1043.67 66.3781 Q1047.72 65.3249 1051.69 63.2184 L1051.69 70.267 Q1047.68 71.9684 1043.47 72.8596 Q1039.26 73.7508 1034.92 73.7508 Q1024.07 73.7508 1017.71 67.4314 Q1011.39 61.1119 1011.39 50.3365 Q1011.39 39.1965 1017.38 32.6746 Q1023.42 26.1121 1033.63 26.1121 Q1042.78 26.1121 1048.09 32.0264 Q1053.44 37.9003 1053.44 48.0275 M1045.98 45.84 Q1045.9 39.7232 1042.54 36.0774 Q1039.22 32.4315 1033.71 32.4315 Q1027.47 32.4315 1023.7 35.9558 Q1019.98 39.4801 1019.41 45.8805 L1045.98 45.84 Z" fill="#000000" fill-rule="nonzero" fill-opacity="1" /><path clip-path="url(#clip350)" d="M1103.38 45.1919 L1103.38 72.576 L1095.93 72.576 L1095.93 45.4349 Q1095.93 38.994 1093.42 35.7938 Q1090.91 32.5936 1085.88 32.5936 Q1079.85 32.5936 1076.36 36.4419 Q1072.88 40.2903 1072.88 46.9338 L1072.88 72.576 L1065.39 72.576 L1065.39 27.2059 L1072.88 27.2059 L1072.88 34.2544 Q1075.55 30.163 1079.16 28.1376 Q1082.81 26.1121 1087.54 26.1121 Q1095.36 26.1121 1099.37 30.9732 Q1103.38 35.7938 1103.38 45.1919 Z" fill="#000000" fill-rule="nonzero" fill-opacity="1" /><path clip-path="url(#clip350)" d="M1150.9 28.9478 L1150.9 35.9153 Q1147.74 34.1734 1144.54 33.3227 Q1141.38 32.4315 1138.14 32.4315 Q1130.89 32.4315 1126.88 37.0496 Q1122.87 41.6271 1122.87 49.9314 Q1122.87 58.2358 1126.88 62.8538 Q1130.89 67.4314 1138.14 67.4314 Q1141.38 67.4314 1144.54 66.5807 Q1147.74 65.6895 1150.9 63.9476 L1150.9 70.8341 Q1147.78 72.2924 1144.42 73.0216 Q1141.1 73.7508 1137.33 73.7508 Q1127.08 73.7508 1121.05 67.3098 Q1115.01 60.8689 1115.01 49.9314 Q1115.01 38.832 1121.09 32.472 Q1127.2 26.1121 1137.82 26.1121 Q1141.26 26.1121 1144.54 26.8413 Q1147.82 27.5299 1150.9 28.9478 Z" fill="#000000" fill-rule="nonzero" fill-opacity="1" /><path clip-path="url(#clip350)" d="M1202.67 48.0275 L1202.67 51.6733 L1168.4 51.6733 Q1168.89 59.3701 1173.02 63.421 Q1177.19 67.4314 1184.6 67.4314 Q1188.9 67.4314 1192.91 66.3781 Q1196.96 65.3249 1200.93 63.2184 L1200.93 70.267 Q1196.92 71.9684 1192.71 72.8596 Q1188.49 73.7508 1184.16 73.7508 Q1173.3 73.7508 1166.94 67.4314 Q1160.62 61.1119 1160.62 50.3365 Q1160.62 39.1965 1166.62 32.6746 Q1172.65 26.1121 1182.86 26.1121 Q1192.02 26.1121 1197.32 32.0264 Q1202.67 37.9003 1202.67 48.0275 M1195.22 45.84 Q1195.14 39.7232 1191.77 36.0774 Q1188.45 32.4315 1182.94 32.4315 Q1176.71 32.4315 1172.94 35.9558 Q1169.21 39.4801 1168.64 45.8805 L1195.22 45.84 Z" fill="#000000" fill-rule="nonzero" fill-opacity="1" /><path clip-path="url(#clip350)" d="M1267.57 34.1734 Q1266.31 33.4443 1264.81 33.1202 Q1263.35 32.7556 1261.57 32.7556 Q1255.25 32.7556 1251.85 36.8875 Q1248.49 40.9789 1248.49 48.6757 L1248.49 72.576 L1240.99 72.576 L1240.99 27.2059 L1248.49 27.2059 L1248.49 34.2544 Q1250.84 30.1225 1254.6 28.1376 Q1258.37 26.1121 1263.76 26.1121 Q1264.53 26.1121 1265.46 26.2337 Q1266.39 26.3147 1267.53 26.5172 L1267.57 34.1734 Z" fill="#000000" fill-rule="nonzero" fill-opacity="1" /><path clip-path="url(#clip350)" d="M1296 49.7694 Q1286.97 49.7694 1283.49 51.8354 Q1280 53.9013 1280 58.8839 Q1280 62.8538 1282.6 65.2034 Q1285.23 67.5124 1289.73 67.5124 Q1295.92 67.5124 1299.65 63.1374 Q1303.42 58.7219 1303.42 51.4303 L1303.42 49.7694 L1296 49.7694 M1310.87 46.6907 L1310.87 72.576 L1303.42 72.576 L1303.42 65.6895 Q1300.87 69.8214 1297.06 71.8063 Q1293.25 73.7508 1287.74 73.7508 Q1280.77 73.7508 1276.64 69.8619 Q1272.55 65.9325 1272.55 59.3701 Q1272.55 51.7138 1277.65 47.825 Q1282.8 43.9361 1292.97 43.9361 L1303.42 43.9361 L1303.42 43.2069 Q1303.42 38.0623 1300.01 35.2672 Q1296.65 32.4315 1290.54 32.4315 Q1286.65 32.4315 1282.96 33.3632 Q1279.27 34.295 1275.87 36.1584 L1275.87 29.2718 Q1279.96 27.692 1283.81 26.9223 Q1287.66 26.1121 1291.31 26.1121 Q1301.15 26.1121 1306.01 31.2163 Q1310.87 36.3204 1310.87 46.6907 Z" fill="#000000" fill-rule="nonzero" fill-opacity="1" /><path clip-path="url(#clip350)" d="M1333.6 14.324 L1333.6 27.2059 L1348.95 27.2059 L1348.95 32.9987 L1333.6 32.9987 L1333.6 57.6282 Q1333.6 63.1779 1335.1 64.7578 Q1336.63 66.3376 1341.29 66.3376 L1348.95 66.3376 L1348.95 72.576 L1341.29 72.576 Q1332.67 72.576 1329.38 69.3758 Q1326.1 66.1351 1326.1 57.6282 L1326.1 32.9987 L1320.63 32.9987 L1320.63 27.2059 L1326.1 27.2059 L1326.1 14.324 L1333.6 14.324 Z" fill="#000000" fill-rule="nonzero" fill-opacity="1" /><path clip-path="url(#clip350)" d="M1397.56 48.0275 L1397.56 51.6733 L1363.29 51.6733 Q1363.78 59.3701 1367.91 63.421 Q1372.08 67.4314 1379.49 67.4314 Q1383.79 67.4314 1387.8 66.3781 Q1391.85 65.3249 1395.82 63.2184 L1395.82 70.267 Q1391.81 71.9684 1387.6 72.8596 Q1383.38 73.7508 1379.05 73.7508 Q1368.19 73.7508 1361.83 67.4314 Q1355.51 61.1119 1355.51 50.3365 Q1355.51 39.1965 1361.51 32.6746 Q1367.54 26.1121 1377.75 26.1121 Q1386.91 26.1121 1392.21 32.0264 Q1397.56 37.9003 1397.56 48.0275 M1390.11 45.84 Q1390.03 39.7232 1386.66 36.0774 Q1383.34 32.4315 1377.83 32.4315 Q1371.59 32.4315 1367.83 35.9558 Q1364.1 39.4801 1363.53 45.8805 L1390.11 45.84 Z" fill="#000000" fill-rule="nonzero" fill-opacity="1" /><path clip-path="url(#clip350)" d="M1453.75 32.4315 Q1447.75 32.4315 1444.27 37.1306 Q1440.78 41.7891 1440.78 49.9314 Q1440.78 58.0738 1444.23 62.7728 Q1447.71 67.4314 1453.75 67.4314 Q1459.7 67.4314 1463.19 62.7323 Q1466.67 58.0333 1466.67 49.9314 Q1466.67 41.8701 1463.19 37.1711 Q1459.7 32.4315 1453.75 32.4315 M1453.75 26.1121 Q1463.47 26.1121 1469.02 32.4315 Q1474.57 38.7509 1474.57 49.9314 Q1474.57 61.0714 1469.02 67.4314 Q1463.47 73.7508 1453.75 73.7508 Q1443.98 73.7508 1438.43 67.4314 Q1432.92 61.0714 1432.92 49.9314 Q1432.92 38.7509 1438.43 32.4315 Q1443.98 26.1121 1453.75 26.1121 Z" fill="#000000" fill-rule="nonzero" fill-opacity="1" /><path clip-path="url(#clip350)" d="M1509.89 9.54393 L1509.89 15.7418 L1502.76 15.7418 Q1498.75 15.7418 1497.17 17.3622 Q1495.63 18.9825 1495.63 23.1955 L1495.63 27.2059 L1507.91 27.2059 L1507.91 32.9987 L1495.63 32.9987 L1495.63 72.576 L1488.14 72.576 L1488.14 32.9987 L1481.01 32.9987 L1481.01 27.2059 L1488.14 27.2059 L1488.14 24.0462 Q1488.14 16.471 1491.66 13.0277 Q1495.19 9.54393 1502.84 9.54393 L1509.89 9.54393 Z" fill="#000000" fill-rule="nonzero" fill-opacity="1" /><path clip-path="url(#clip350)" d="M1560.41 9.62495 Q1554.98 18.942 1552.35 28.0566 Q1549.71 37.1711 1549.71 46.5287 Q1549.71 55.8863 1552.35 65.0818 Q1555.02 74.2369 1560.41 83.5134 L1553.93 83.5134 Q1547.85 73.9938 1544.81 64.7983 Q1541.81 55.6027 1541.81 46.5287 Q1541.81 37.4952 1544.81 28.3401 Q1547.81 19.1851 1553.93 9.62495 L1560.41 9.62495 Z" fill="#000000" fill-rule="nonzero" fill-opacity="1" /><path clip-path="url(#clip350)" d="M1612.58 27.2059 L1596.18 49.2833 L1613.43 72.576 L1604.64 72.576 L1591.44 54.752 L1578.23 72.576 L1569.44 72.576 L1587.06 48.8377 L1570.94 27.2059 L1579.73 27.2059 L1591.76 43.369 L1603.79 27.2059 L1612.58 27.2059 Z" fill="#000000" fill-rule="nonzero" fill-opacity="1" /><path clip-path="url(#clip350)" d="M1642.52 17.4837 Q1636.2 17.4837 1633 23.7221 Q1629.84 29.92 1629.84 42.3968 Q1629.84 54.833 1633 61.0714 Q1636.2 67.2693 1642.52 67.2693 Q1648.88 67.2693 1652.04 61.0714 Q1655.24 54.833 1655.24 42.3968 Q1655.24 29.92 1652.04 23.7221 Q1648.88 17.4837 1642.52 17.4837 M1642.52 11.0023 Q1652.69 11.0023 1658.03 19.0636 Q1663.42 27.0843 1663.42 42.3968 Q1663.42 57.6687 1658.03 65.73 Q1652.69 73.7508 1642.52 73.7508 Q1632.35 73.7508 1626.96 65.73 Q1621.62 57.6687 1621.62 42.3968 Q1621.62 27.0843 1626.96 19.0636 Q1632.35 11.0023 1642.52 11.0023 Z" fill="#000000" fill-rule="nonzero" fill-opacity="1" /><path clip-path="url(#clip350)" d="M1672.98 46.5287 L1694.82 46.5287 L1694.82 53.1722 L1672.98 53.1722 L1672.98 46.5287 Z" fill="#000000" fill-rule="nonzero" fill-opacity="1" /><path clip-path="url(#clip350)" d="M1744.4 27.2059 L1727.99 49.2833 L1745.25 72.576 L1736.46 72.576 L1723.25 54.752 L1710.05 72.576 L1701.26 72.576 L1718.88 48.8377 L1702.76 27.2059 L1711.55 27.2059 L1723.58 43.369 L1735.61 27.2059 L1744.4 27.2059 Z" fill="#000000" fill-rule="nonzero" fill-opacity="1" /><path clip-path="url(#clip350)" d="M1784.71 28.5427 L1784.71 35.5912 Q1781.55 33.9709 1778.14 33.1607 Q1774.74 32.3505 1771.09 32.3505 Q1765.54 32.3505 1762.75 34.0519 Q1759.99 35.7533 1759.99 39.156 Q1759.99 41.7486 1761.98 43.2475 Q1763.96 44.7058 1769.96 46.0426 L1772.51 46.6097 Q1780.45 48.3111 1783.77 51.4303 Q1787.14 54.509 1787.14 60.0587 Q1787.14 66.3781 1782.11 70.0644 Q1777.13 73.7508 1768.38 73.7508 Q1764.73 73.7508 1760.76 73.0216 Q1756.84 72.3329 1752.46 70.9151 L1752.46 63.2184 Q1756.59 65.3654 1760.6 66.4591 Q1764.61 67.5124 1768.54 67.5124 Q1773.81 67.5124 1776.64 65.73 Q1779.48 63.9071 1779.48 60.6258 Q1779.48 57.5877 1777.41 55.9673 Q1775.39 54.3469 1768.46 52.8481 L1765.87 52.2405 Q1758.94 50.7821 1755.86 47.7845 Q1752.78 44.7463 1752.78 39.4801 Q1752.78 33.0797 1757.32 29.5959 Q1761.86 26.1121 1770.2 26.1121 Q1774.34 26.1121 1777.98 26.7198 Q1781.63 27.3274 1784.71 28.5427 Z" fill="#000000" fill-rule="nonzero" fill-opacity="1" /><path clip-path="url(#clip350)" d="M1797.83 9.62495 L1804.31 9.62495 Q1810.39 19.1851 1813.39 28.3401 Q1816.42 37.4952 1816.42 46.5287 Q1816.42 55.6027 1813.39 64.7983 Q1810.39 73.9938 1804.31 83.5134 L1797.83 83.5134 Q1803.22 74.2369 1805.85 65.0818 Q1808.52 55.8863 1808.52 46.5287 Q1808.52 37.1711 1805.85 28.0566 Q1803.22 18.942 1797.83 9.62495 Z" fill="#000000" fill-rule="nonzero" fill-opacity="1" /><path clip-path="url(#clip350)" d="M1862.28 12.096 L1884.28 34.6595 L1876.13 34.6595 L1858.31 18.6585 L1840.49 34.6595 L1832.34 34.6595 L1854.34 12.096 L1862.28 12.096 Z" fill="#000000" fill-rule="nonzero" fill-opacity="1" /><path clip-path="url(#clip350)" d="M1908.99 65.6895 L1937.55 65.6895 L1937.55 72.576 L1899.14 72.576 L1899.14 65.6895 Q1903.8 60.8689 1911.82 52.7671 Q1919.88 44.6248 1921.95 42.2752 Q1925.88 37.8598 1927.42 34.8216 Q1929 31.7429 1929 28.7857 Q1929 23.9651 1925.6 20.927 Q1922.23 17.8888 1916.81 17.8888 Q1912.96 17.8888 1908.66 19.2256 Q1904.41 20.5624 1899.55 23.2765 L1899.55 15.0127 Q1904.49 13.0277 1908.78 12.015 Q1913.08 11.0023 1916.64 11.0023 Q1926.04 11.0023 1931.63 15.7013 Q1937.22 20.4004 1937.22 28.2591 Q1937.22 31.9859 1935.8 35.3482 Q1934.43 38.6699 1930.74 43.2069 Q1929.73 44.3817 1924.3 50.0125 Q1918.87 55.6027 1908.99 65.6895 Z" fill="#000000" fill-rule="nonzero" fill-opacity="1" /><polyline clip-path="url(#clip352)" style="stroke:#009af9; stroke-linecap:round; stroke-linejoin:round; stroke-width:4; stroke-opacity:1; fill:none" points="309.067,1386.4 329.109,1250.88 349.151,1080.62 369.193,945.771 389.235,842.242 409.277,761.633 429.319,697.525 449.361,646.242 469.403,603.323 489.446,566.456 689.866,383.637 890.287,314.272 1090.71,277.864 1291.13,255.375 1491.55,240.183 1691.97,229.238 1892.39,220.922 2092.81,214.27 2293.23,209.041 "/>
<polyline clip-path="url(#clip352)" style="stroke:#e26f46; stroke-linecap:round; stroke-linejoin:round; stroke-width:4; stroke-opacity:1; fill:none" points="309.067,1386.39 329.109,910.7 349.151,485.042 369.193,160.256 389.235,160.256 409.277,160.256 429.319,160.256 449.361,160.256 469.403,160.256 489.446,160.256 689.866,160.256 890.287,160.256 1090.71,160.256 1291.13,160.256 1491.55,160.256 1691.97,160.256 1892.39,160.256 2092.81,160.256 2293.23,160.256 "/>
<polyline clip-path="url(#clip352)" style="stroke:#3da44d; stroke-linecap:round; stroke-linejoin:round; stroke-width:4; stroke-opacity:1; fill:none" points="309.067,1381.59 329.109,1197.36 349.151,986.538 369.193,800.455 389.235,646.551 409.277,524.594 429.319,412.515 449.361,323.103 469.403,244.028 489.446,171.126 689.866,160.256 890.287,160.256 1090.71,160.256 1291.13,160.256 1491.55,160.256 1691.97,160.256 1892.39,160.256 2092.81,160.256 2293.23,160.256 "/>
<path clip-path="url(#clip350)" d="M2004.55 1379.86 L2282.65 1379.86 L2282.65 1172.5 L2004.55 1172.5  Z" fill="#ffffff" fill-rule="evenodd" fill-opacity="1"/>
<polyline clip-path="url(#clip350)" style="stroke:#000000; stroke-linecap:round; stroke-linejoin:round; stroke-width:4; stroke-opacity:1; fill:none" points="2004.55,1379.86 2282.65,1379.86 2282.65,1172.5 2004.55,1172.5 2004.55,1379.86 "/>
<polyline clip-path="url(#clip350)" style="stroke:#009af9; stroke-linecap:round; stroke-linejoin:round; stroke-width:4; stroke-opacity:1; fill:none" points="2027.92,1224.34 2168.13,1224.34 "/>
<path clip-path="url(#clip350)" d="M2217.06 1236.69 L2217.06 1227.4 L2209.42 1227.4 L2209.42 1223.56 L2221.69 1223.56 L2221.69 1238.4 Q2218.98 1240.32 2215.72 1241.32 Q2212.45 1242.29 2208.75 1242.29 Q2200.65 1242.29 2196.06 1237.57 Q2191.5 1232.82 2191.5 1224.37 Q2191.5 1215.9 2196.06 1211.18 Q2200.65 1206.43 2208.75 1206.43 Q2212.13 1206.43 2215.16 1207.26 Q2218.22 1208.1 2220.78 1209.72 L2220.78 1214.7 Q2218.19 1212.5 2215.28 1211.38 Q2212.36 1210.27 2209.14 1210.27 Q2202.8 1210.27 2199.6 1213.82 Q2196.43 1217.36 2196.43 1224.37 Q2196.43 1231.36 2199.6 1234.9 Q2202.8 1238.44 2209.14 1238.44 Q2211.62 1238.44 2213.56 1238.03 Q2215.51 1237.59 2217.06 1236.69 Z" fill="#000000" fill-rule="nonzero" fill-opacity="1" /><path clip-path="url(#clip350)" d="M2234.9 1210.9 L2234.9 1237.77 L2240.55 1237.77 Q2247.71 1237.77 2251.02 1234.53 Q2254.35 1231.29 2254.35 1224.3 Q2254.35 1217.36 2251.02 1214.14 Q2247.71 1210.9 2240.55 1210.9 L2234.9 1210.9 M2230.23 1207.06 L2239.84 1207.06 Q2249.88 1207.06 2254.58 1211.25 Q2259.28 1215.41 2259.28 1224.3 Q2259.28 1233.24 2254.56 1237.43 Q2249.84 1241.62 2239.84 1241.62 L2230.23 1241.62 L2230.23 1207.06 Z" fill="#000000" fill-rule="nonzero" fill-opacity="1" /><polyline clip-path="url(#clip350)" style="stroke:#e26f46; stroke-linecap:round; stroke-linejoin:round; stroke-width:4; stroke-opacity:1; fill:none" points="2027.92,1276.18 2168.13,1276.18 "/>
<path clip-path="url(#clip350)" d="M2191.5 1258.9 L2196.18 1258.9 L2196.18 1273.06 L2213.17 1273.06 L2213.17 1258.9 L2217.84 1258.9 L2217.84 1293.46 L2213.17 1293.46 L2213.17 1277 L2196.18 1277 L2196.18 1293.46 L2191.5 1293.46 L2191.5 1258.9 Z" fill="#000000" fill-rule="nonzero" fill-opacity="1" /><path clip-path="url(#clip350)" d="M2231.83 1276.95 L2231.83 1289.61 L2239.33 1289.61 Q2243.1 1289.61 2244.9 1288.06 Q2246.73 1286.49 2246.73 1283.27 Q2246.73 1280.03 2244.9 1278.5 Q2243.1 1276.95 2239.33 1276.95 L2231.83 1276.95 M2231.83 1262.74 L2231.83 1273.16 L2238.75 1273.16 Q2242.17 1273.16 2243.84 1271.88 Q2245.53 1270.59 2245.53 1267.95 Q2245.53 1265.33 2243.84 1264.04 Q2242.17 1262.74 2238.75 1262.74 L2231.83 1262.74 M2227.15 1258.9 L2239.09 1258.9 Q2244.44 1258.9 2247.34 1261.12 Q2250.23 1263.34 2250.23 1267.44 Q2250.23 1270.61 2248.75 1272.48 Q2247.27 1274.36 2244.4 1274.82 Q2247.84 1275.56 2249.74 1277.92 Q2251.66 1280.26 2251.66 1283.78 Q2251.66 1288.41 2248.52 1290.93 Q2245.37 1293.46 2239.56 1293.46 L2227.15 1293.46 L2227.15 1258.9 Z" fill="#000000" fill-rule="nonzero" fill-opacity="1" /><polyline clip-path="url(#clip350)" style="stroke:#3da44d; stroke-linecap:round; stroke-linejoin:round; stroke-width:4; stroke-opacity:1; fill:none" points="2027.92,1328.02 2168.13,1328.02 "/>
<path clip-path="url(#clip350)" d="M2191.5 1310.74 L2211.36 1310.74 L2211.36 1314.67 L2196.18 1314.67 L2196.18 1324.86 L2209.88 1324.86 L2209.88 1328.79 L2196.18 1328.79 L2196.18 1345.3 L2191.5 1345.3 L2191.5 1310.74 Z" fill="#000000" fill-rule="nonzero" fill-opacity="1" /><path clip-path="url(#clip350)" d="M2242.34 1340.37 L2242.34 1331.08 L2234.7 1331.08 L2234.7 1327.24 L2246.96 1327.24 L2246.96 1342.08 Q2244.26 1344 2240.99 1345 Q2237.73 1345.97 2234.03 1345.97 Q2225.92 1345.97 2221.34 1341.25 Q2216.78 1336.5 2216.78 1328.05 Q2216.78 1319.58 2221.34 1314.86 Q2225.92 1310.11 2234.03 1310.11 Q2237.4 1310.11 2240.44 1310.94 Q2243.49 1311.78 2246.06 1313.4 L2246.06 1318.38 Q2243.47 1316.18 2240.55 1315.06 Q2237.64 1313.95 2234.42 1313.95 Q2228.08 1313.95 2224.88 1317.5 Q2221.71 1321.04 2221.71 1328.05 Q2221.71 1335.04 2224.88 1338.58 Q2228.08 1342.12 2234.42 1342.12 Q2236.9 1342.12 2238.84 1341.71 Q2240.78 1341.27 2242.34 1340.37 Z" fill="#000000" fill-rule="nonzero" fill-opacity="1" /></svg>
